# xmcd
#
# Track frame offsets:
#	150
#	20974
#	35793
#	52165
#	68092
#	80396
#	96692
#	113953
#	128455
#	144858
#	158796
#	170784
#	187603
#	204893
#
# Disc length: 3015 seconds
#
# Revision: 1
# Processed by: cddbd v1.5.1PL2 Copyright (c) Steve Scherf et al.
# Submitted via: audiograbber 1.83.01
#
DISCID=c20bc50e
DTITLE=Star Disc - SD079
DYEAR=1900
DGENRE=Country
TTITLE0=Messina, Jo Dee - Burn
TTITLE1=Alabama - When It All Goes South
TTITLE2=Keith, Toby - You Shouldn't Kiss Me Like This
TTITLE3=Raye, Collin - She's All That
TTITLE4=Dixie Chicks, The - Sin Wagon
TTITLE5=Diamond Rio - One More Day
TTITLE6=Andrews, Jessica - Who I Am
TTITLE7=Warren Brothers, The - Move On
TTITLE8=White, Bryan - How Long
TTITLE9=McGraw, Tim - Things Change
TTITLE10=Heatherly, Eric - Wrong Five O'Clock
TTITLE11=Rushlow, Tim - She Misses Him
TTITLE12=Tennison, Chalee - Go Back
TTITLE13=Kinleys - I'm In
EXTD=MediaType: Karaoke CD+G Producer: StarDisc
EXTT0=
EXTT1=
EXTT2=
EXTT3=
EXTT4=
EXTT5=
EXTT6=
EXTT7=
EXTT8=
EXTT9=
EXTT10=
EXTT11=
EXTT12=
EXTT13=
PLAYORDER=
